%TF.GenerationSoftware,KiCad,Pcbnew,8.0.8*%
%TF.CreationDate,2025-03-05T12:52:20+07:00*%
%TF.ProjectId,Control-MCU,436f6e74-726f-46c2-9d4d-43552e6b6963,rev?*%
%TF.SameCoordinates,Original*%
%TF.FileFunction,Soldermask,Top*%
%TF.FilePolarity,Negative*%
%FSLAX46Y46*%
G04 Gerber Fmt 4.6, Leading zero omitted, Abs format (unit mm)*
G04 Created by KiCad (PCBNEW 8.0.8) date 2025-03-05 12:52:20*
%MOMM*%
%LPD*%
G01*
G04 APERTURE LIST*
G04 Aperture macros list*
%AMRoundRect*
0 Rectangle with rounded corners*
0 $1 Rounding radius*
0 $2 $3 $4 $5 $6 $7 $8 $9 X,Y pos of 4 corners*
0 Add a 4 corners polygon primitive as box body*
4,1,4,$2,$3,$4,$5,$6,$7,$8,$9,$2,$3,0*
0 Add four circle primitives for the rounded corners*
1,1,$1+$1,$2,$3*
1,1,$1+$1,$4,$5*
1,1,$1+$1,$6,$7*
1,1,$1+$1,$8,$9*
0 Add four rect primitives between the rounded corners*
20,1,$1+$1,$2,$3,$4,$5,0*
20,1,$1+$1,$4,$5,$6,$7,0*
20,1,$1+$1,$6,$7,$8,$9,0*
20,1,$1+$1,$8,$9,$2,$3,0*%
G04 Aperture macros list end*
%ADD10RoundRect,0.250000X-0.650000X0.412500X-0.650000X-0.412500X0.650000X-0.412500X0.650000X0.412500X0*%
%ADD11C,2.000000*%
%ADD12R,1.600000X1.600000*%
%ADD13O,1.600000X1.600000*%
%ADD14RoundRect,0.237500X0.250000X0.237500X-0.250000X0.237500X-0.250000X-0.237500X0.250000X-0.237500X0*%
%ADD15RoundRect,0.250000X0.400000X0.625000X-0.400000X0.625000X-0.400000X-0.625000X0.400000X-0.625000X0*%
%ADD16RoundRect,0.250000X0.725000X-0.600000X0.725000X0.600000X-0.725000X0.600000X-0.725000X-0.600000X0*%
%ADD17O,1.950000X1.700000*%
%ADD18C,1.600000*%
%ADD19RoundRect,0.250000X0.350000X0.450000X-0.350000X0.450000X-0.350000X-0.450000X0.350000X-0.450000X0*%
%ADD20RoundRect,0.237500X0.237500X-0.250000X0.237500X0.250000X-0.237500X0.250000X-0.237500X-0.250000X0*%
%ADD21RoundRect,0.237500X-0.237500X0.250000X-0.237500X-0.250000X0.237500X-0.250000X0.237500X0.250000X0*%
%ADD22RoundRect,0.250000X-0.725000X0.600000X-0.725000X-0.600000X0.725000X-0.600000X0.725000X0.600000X0*%
%ADD23RoundRect,0.760000X1.140000X-1.140000X1.140000X1.140000X-1.140000X1.140000X-1.140000X-1.140000X0*%
%ADD24C,4.000000*%
%ADD25RoundRect,0.250000X-0.412500X-0.650000X0.412500X-0.650000X0.412500X0.650000X-0.412500X0.650000X0*%
%ADD26RoundRect,0.250000X0.750000X-0.600000X0.750000X0.600000X-0.750000X0.600000X-0.750000X-0.600000X0*%
%ADD27O,2.000000X1.700000*%
%ADD28RoundRect,0.250000X-0.400000X-0.625000X0.400000X-0.625000X0.400000X0.625000X-0.400000X0.625000X0*%
%ADD29RoundRect,0.250000X-0.600000X-0.725000X0.600000X-0.725000X0.600000X0.725000X-0.600000X0.725000X0*%
%ADD30O,1.700000X1.950000*%
%ADD31RoundRect,0.250000X-0.750000X0.600000X-0.750000X-0.600000X0.750000X-0.600000X0.750000X0.600000X0*%
%ADD32C,1.524000*%
%ADD33RoundRect,0.250001X-0.462499X-0.624999X0.462499X-0.624999X0.462499X0.624999X-0.462499X0.624999X0*%
G04 APERTURE END LIST*
D10*
%TO.C,C5*%
X168910000Y-101523000D03*
X168910000Y-104648000D03*
%TD*%
D11*
%TO.C,SW2*%
X156464000Y-145034000D03*
X149964000Y-145034000D03*
X156464000Y-140534000D03*
X149964000Y-140534000D03*
%TD*%
D12*
%TO.C,SW1*%
X116078000Y-99314000D03*
D13*
X116078000Y-91694000D03*
%TD*%
D14*
%TO.C,R9*%
X158115000Y-84963000D03*
X156290000Y-84963000D03*
%TD*%
D15*
%TO.C,R5-2*%
X124460000Y-77978000D03*
X121360000Y-77978000D03*
%TD*%
D16*
%TO.C,J4*%
X176834800Y-98552000D03*
D17*
X176834800Y-96052000D03*
X176834800Y-93552000D03*
%TD*%
D18*
%TO.C,C8*%
X115570000Y-102148000D03*
X115570000Y-107148000D03*
%TD*%
D19*
%TO.C,R2-1*%
X159385000Y-124968000D03*
X157385000Y-124968000D03*
%TD*%
%TO.C,R2-2*%
X167005000Y-117348000D03*
X165005000Y-117348000D03*
%TD*%
%TO.C,R2-3*%
X159385000Y-119888000D03*
X157385000Y-119888000D03*
%TD*%
D18*
%TO.C,C6*%
X113110000Y-58928000D03*
X118110000Y-58928000D03*
%TD*%
%TO.C,R1*%
X123698000Y-68072000D03*
D13*
X133858000Y-68072000D03*
%TD*%
D19*
%TO.C,R2-5*%
X167005000Y-123063000D03*
X165005000Y-123063000D03*
%TD*%
D20*
%TO.C,R10*%
X168910000Y-91313000D03*
X168910000Y-89488000D03*
%TD*%
D18*
%TO.C,R16*%
X122428000Y-101600000D03*
D13*
X122428000Y-91440000D03*
%TD*%
D21*
%TO.C,R12*%
X168910000Y-84408000D03*
X168910000Y-86233000D03*
%TD*%
D18*
%TO.C,R14*%
X156210000Y-97663000D03*
D13*
X156210000Y-107823000D03*
%TD*%
D18*
%TO.C,C10*%
X113110000Y-63500000D03*
X118110000Y-63500000D03*
%TD*%
%TO.C,R3*%
X123698000Y-58928000D03*
D13*
X133858000Y-58928000D03*
%TD*%
D22*
%TO.C,J8*%
X106426000Y-92068000D03*
D17*
X106426000Y-94568000D03*
X106426000Y-97068000D03*
X106426000Y-99568000D03*
%TD*%
D23*
%TO.C,U2*%
X176784000Y-65024000D03*
D24*
X176784000Y-60024000D03*
%TD*%
D25*
%TO.C,C3*%
X161505500Y-90043000D03*
X164630500Y-90043000D03*
%TD*%
D22*
%TO.C,J2*%
X106934000Y-121960000D03*
D17*
X106934000Y-124460000D03*
X106934000Y-126960000D03*
%TD*%
D18*
%TO.C,C9*%
X120904000Y-131572000D03*
X120904000Y-126572000D03*
%TD*%
D25*
%TO.C,C2*%
X161467000Y-84963000D03*
X164592000Y-84963000D03*
%TD*%
D14*
%TO.C,R8*%
X157988000Y-94488000D03*
X156163000Y-94488000D03*
%TD*%
%TO.C,R7*%
X158115000Y-90043000D03*
X156290000Y-90043000D03*
%TD*%
D26*
%TO.C,EBRAKE1*%
X176885600Y-109220000D03*
D27*
X176885600Y-106720000D03*
%TD*%
D28*
%TO.C,R5-1206*%
X113258000Y-84836000D03*
X116358000Y-84836000D03*
%TD*%
D22*
%TO.C,J7*%
X106426000Y-75558000D03*
D17*
X106426000Y-78058000D03*
X106426000Y-80558000D03*
X106426000Y-83058000D03*
%TD*%
D19*
%TO.C,R2-4*%
X159385000Y-114173000D03*
X157385000Y-114173000D03*
%TD*%
D25*
%TO.C,C4*%
X161505500Y-94488000D03*
X164630500Y-94488000D03*
%TD*%
D18*
%TO.C,C12*%
X166290000Y-143002000D03*
X161290000Y-143002000D03*
%TD*%
%TO.C,R15*%
X146507200Y-129794000D03*
D13*
X136347200Y-129794000D03*
%TD*%
D18*
%TO.C,R6*%
X158496000Y-71628000D03*
D13*
X168656000Y-71628000D03*
%TD*%
D22*
%TO.C,J3*%
X106426000Y-59556000D03*
D17*
X106426000Y-62056000D03*
X106426000Y-64556000D03*
X106426000Y-67056000D03*
%TD*%
D21*
%TO.C,R11*%
X168910000Y-93853000D03*
X168910000Y-95678000D03*
%TD*%
D18*
%TO.C,C11*%
X163195000Y-100283000D03*
X163195000Y-105283000D03*
%TD*%
D28*
%TO.C,R5-3*%
X113232000Y-77978000D03*
X116332000Y-77978000D03*
%TD*%
D18*
%TO.C,R4*%
X115062000Y-121920000D03*
D13*
X115062000Y-111760000D03*
%TD*%
D18*
%TO.C,C7*%
X120904000Y-118872000D03*
X120904000Y-113872000D03*
%TD*%
%TO.C,R13*%
X115062000Y-125476000D03*
D13*
X115062000Y-135636000D03*
%TD*%
D16*
%TO.C,COMUNICATION1*%
X176784000Y-85344000D03*
D17*
X176784000Y-82844000D03*
X176784000Y-80344000D03*
X176784000Y-77844000D03*
X176784000Y-75344000D03*
X176784000Y-72844000D03*
%TD*%
D19*
%TO.C,R2-6*%
X167132000Y-111633000D03*
X165132000Y-111633000D03*
%TD*%
D18*
%TO.C,C1*%
X113110000Y-68072000D03*
X118110000Y-68072000D03*
%TD*%
D29*
%TO.C,BACK-EMF1*%
X127200000Y-143002000D03*
D30*
X129700000Y-143002000D03*
X132200000Y-143002000D03*
X134700000Y-143002000D03*
X137200000Y-143002000D03*
X139700000Y-143002000D03*
%TD*%
D31*
%TO.C,THERM1*%
X106680000Y-135676000D03*
D27*
X106680000Y-138176000D03*
%TD*%
D22*
%TO.C,SBRAKE1*%
X106426000Y-108284000D03*
D17*
X106426000Y-110784000D03*
X106426000Y-113284000D03*
%TD*%
D32*
%TO.C,U1*%
X133604000Y-108204000D03*
X133604000Y-110744000D03*
X133604000Y-113284000D03*
X148844000Y-98044000D03*
X148844000Y-95504000D03*
X148844000Y-92964000D03*
X148844000Y-90424000D03*
X148844000Y-87884000D03*
X148844000Y-85344000D03*
X148844000Y-82804000D03*
X133604000Y-115824000D03*
X148844000Y-123444000D03*
X148844000Y-120904000D03*
X148844000Y-118364000D03*
X148844000Y-115824000D03*
X133604000Y-82804000D03*
X133604000Y-80264000D03*
X133604000Y-77724000D03*
X133604000Y-75184000D03*
X148844000Y-75184000D03*
X148844000Y-77724000D03*
X133604000Y-123444000D03*
X148844000Y-80264000D03*
X133604000Y-85344000D03*
X133604000Y-87884000D03*
X133604000Y-90424000D03*
X133604000Y-92964000D03*
X133604000Y-95504000D03*
X133604000Y-98044000D03*
X133604000Y-100584000D03*
X133604000Y-103124000D03*
X133604000Y-105664000D03*
X148844000Y-113284000D03*
X148844000Y-110744000D03*
X148844000Y-108204000D03*
X148844000Y-105664000D03*
X148844000Y-103124000D03*
X148844000Y-100584000D03*
X133604000Y-120904000D03*
X133604000Y-118364000D03*
%TD*%
D18*
%TO.C,R5*%
X158496000Y-75692000D03*
D13*
X168656000Y-75692000D03*
%TD*%
D18*
%TO.C,R2*%
X123698000Y-63500000D03*
D13*
X133858000Y-63500000D03*
%TD*%
D33*
%TO.C,PPTC_Fuse300mA1*%
X149425000Y-65278000D03*
X152400000Y-65278000D03*
%TD*%
D15*
%TO.C,R5-1*%
X124460000Y-84836000D03*
X121360000Y-84836000D03*
%TD*%
D16*
%TO.C,J1*%
X176885600Y-137348000D03*
D17*
X176885600Y-134848000D03*
X176885600Y-132348000D03*
X176885600Y-129848000D03*
X176885600Y-127348000D03*
X176885600Y-124848000D03*
X176885600Y-122348000D03*
X176885600Y-119848000D03*
X176885600Y-117348000D03*
%TD*%
M02*
